<svg width="50" height="50" viewBox="0 0 50 50" fill="none" xmlns="http://www.w3.org/2000/svg">
  <path fill-rule="evenodd" clip-rule="evenodd" d="M22 6C13.1634 6 6 13.1634 6 22C6 30.8366 13.1634 38 22 38C25.5684 38 28.8631 36.8329 31.5587 34.8623L39.6896 43.5855C40.6385 44.6035 42.2356 44.6621 43.2536 43.7132C44.2716 42.7643 44.3302 41.1672 43.3813 40.1492L35.4057 31.5937C37.0396 28.8778 38 25.5901 38 22C38 13.1634 30.8366 6 22 6ZM10 22C10 15.3726 15.3726 10 22 10C28.6274 10 34 15.3726 34 22C34 28.6274 28.6274 34 22 34C15.3726 34 10 28.6274 10 22ZM16 18C15.4477 18 15 18.4477 15 19C15 19.5523 15.4477 20 16 20H28C28.5523 20 29 19.5523 29 19C29 18.4477 28.5523 18 28 18H16ZM16 24C15.4477 24 15 24.4477 15 25C15 25.5523 15.4477 26 16 26H28C28.5523 26 29 25.5523 29 25C29 24.4477 28.5523 24 28 24H16Z" fill="currentColor"/>
</svg>
